<svg xmlns="http://www.w3.org/2000/svg" viewBox="0 0 48 48">
  <path d="M24 9 C19 5 18 1 21 1 C22.5 1 23 4 24 9 Z" fill="#FCD34D" stroke="#3D2F1F" stroke-width="1.6" stroke-linejoin="round"/>
  <path d="M24 9 C29 5 30 1 27 1 C25.5 1 25 4 24 9 Z" fill="#FCD34D" stroke="#3D2F1F" stroke-width="1.6" stroke-linejoin="round"/>
  <circle cx="24" cy="28" r="19" fill="#FCD34D" stroke="#3D2F1F" stroke-width="1.8"/>
  <clipPath id="b"><circle cx="24" cy="28" r="17.5"/></clipPath>
  <rect x="0" y="15" width="48" height="22" fill="#F5EFE0" clip-path="url(#b)"/>
  <path d="M20 19.5 Q19 19.8 18 20.5" stroke="#3D2F1F" stroke-width="1.5" fill="none" stroke-linecap="round"/>
  <path d="M28 19.5 Q29 19.8 30 20.5" stroke="#3D2F1F" stroke-width="1.5" fill="none" stroke-linecap="round"/>
  <circle cx="15.5" cy="28" r="2.1" fill="#3D2F1F"/>
  <circle cx="32.5" cy="28" r="2.1" fill="#3D2F1F"/>
  <path d="M24 25 Q18 28 19.5 32 Q24 34.2 28.5 32 Q30 28 24 25 Z" fill="#FCD34D"/>
  <path d="M19.5 32 Q24 34.2 28.5 32" stroke="#3D2F1F" stroke-width="1.5" fill="none" stroke-linecap="round"/>
</svg>
